<svg xmlns="http://www.w3.org/2000/svg" xmlns:xlink="http://www.w3.org/1999/xlink" width="502" height="126" viewBox="0 0 502 126">
  <defs>
    <clipPath id="clip-_502x126">
      <rect width="502" height="126"/>
    </clipPath>
  </defs>
  <g id="_502x126" data-name="502x126" clip-path="url(#clip-_502x126)">
    <g id="Group_80574" data-name="Group 80574" transform="translate(-523 -496.792)">
      <g id="Group_80572" data-name="Group 80572" transform="translate(523 506)">
        <g id="Group_80507" data-name="Group 80507" transform="translate(0)">
          <path id="Subtraction_12" data-name="Subtraction 12" d="M23.462,99.188a3.444,3.444,0,0,1-1.385-.594c-6.134-3.618-12.639-7.368-20.471-11.8A2.682,2.682,0,0,1,0,84.09C.055,67.35.056,49.964,0,32.415A2.7,2.7,0,0,1,1.611,29.7C18.695,19.925,35.793,10.087,52.426.462A2.884,2.884,0,0,1,53.877,0,2.994,2.994,0,0,1,55.39.492c16.769,9.7,33.865,19.543,50.812,29.253a2.677,2.677,0,0,1,1.605,2.72c-.079,5.456-.081,11.138,0,17.371a2.557,2.557,0,0,1-1.509,2.571C87.626,63.1,70.942,72.7,55.29,81.768a2.77,2.77,0,0,1-1.4.439,3.006,3.006,0,0,1-1.534-.507c-8.285-4.81-16.681-9.627-24.8-14.286l-1.359-.78c-.157-.09-.311-.194-.461-.3l0,0a2.883,2.883,0,0,0-1.52-.636,5.355,5.355,0,0,0-.19,2.314c.019.3.04.608.038.908q-.006,2.217-.013,4.434v.166c-.023,7.862-.047,15.992.011,23.986.007.888-.076,1.353-.276,1.557A.426.426,0,0,1,23.462,99.188ZM53.938,27.806a2.7,2.7,0,0,0-1.316.487l-.108.062c-3.04,1.743-6.135,3.514-9.128,5.226l-.4.232-5.651,3.233c-1.54.882-3.109,1.782-4.626,2.653l-.374.214-1.948,1.117c.058.1.1.19.136.26l.006.011c.061.125.1.205.164.241,2.086,1.2,4.171,2.395,6.66,3.821l.126.072c5.052,2.9,10.275,5.89,15.392,8.868a1.81,1.81,0,0,0,.915.277,2.734,2.734,0,0,0,1.336-.5l.105-.06c2.411-1.38,4.867-2.777,7.242-4.128l.073-.042c1.745-.993,3.916-2.229,5.986-3.411s4.192-2.4,6.234-3.58l.051-.029,2.556-1.471c-.06-.1-.1-.191-.139-.262l-.009-.018,0-.005c-.062-.125-.1-.2-.16-.235-2.041-1.172-4.12-2.361-6.129-3.512l-.245-.14-.144-.083c-5.141-2.943-10.458-5.987-15.662-9.019A1.844,1.844,0,0,0,53.938,27.806Z" fill="#dddcdb" stroke="rgba(0,0,0,0)" stroke-miterlimit="10" stroke-width="1"/>
          <path id="Path_15864" data-name="Path 15864" d="M110.153,1870.116c3.844,2.189,7.584,4.313,11.317,6.448,3.567,2.039,7.168,4.022,10.667,6.171a3.143,3.143,0,0,0,3.745.043q24.863-14.372,49.815-28.592a4.906,4.906,0,0,1,2.544-1.1v11c0,4.927-.038,9.854.028,14.78a2.39,2.39,0,0,1-1.374,2.436q-25.7,14.676-51.355,29.444a2.409,2.409,0,0,1-2.794-.012q-10.716-6.306-21.51-12.479a2.031,2.031,0,0,1-1.323-1.983c.053-8.456.03-16.913.038-25.37A4.25,4.25,0,0,1,110.153,1870.116Z" transform="translate(-80.646 -1794.395)" fill="#00c600"/>
        </g>
        <g id="Group_80562" data-name="Group 80562" transform="translate(147.011 16.335)">
          <g id="Group_80561" data-name="Group 80561" transform="translate(0 0)">
            <path id="Path_15886" data-name="Path 15886" d="M-263.163-49.078v29.509h-11.948v-81.348h15.93a24.391,24.391,0,0,1,9.447,1.481,12.857,12.857,0,0,1,5.742,5.127q4.075,6.38,4.075,19.255,0,14.014-4.816,20.394a11.96,11.96,0,0,1-5.557,4.329,25.856,25.856,0,0,1-8.891,1.253Zm-.37-11.849h4.353q4.353,0,5.928-3.646,1.389-3.3,1.389-10.824t-1.852-10.938q-1.482-2.848-5.372-2.848h-4.446Zm54.751,16.862h10.836q-.093,10.71-2.871,16.292-4.631,9.456-15.467,9.456-10.466,0-15-8.431-3.242-5.925-3.242-20.052V-73.574a74.594,74.594,0,0,1,.926-13.159,21.77,21.77,0,0,1,3.056-8.146q4.631-7.064,14.171-7.064,11.3,0,15.653,10.482,1.945,4.671,2.13,13.9h-10.929q-.371-7.292-1.76-9.912a4.989,4.989,0,0,0-4.816-2.62q-3.983,0-5.372,4.329-1.111,3.76-1.111,13.216v24.724q0,10.824,1.575,14.356a5.19,5.19,0,0,0,5.094,3.19,5.536,5.536,0,0,0,5.326-3.19Q-208.968-36.659-208.783-44.065Z" transform="translate(275.111 101.943)" fill="#dddcdb"/>
            <path id="Path_15887" data-name="Path 15887" d="M-164.541-18.558v-82.206h17.97a26.324,26.324,0,0,1,8.751,1.151,12.348,12.348,0,0,1,5.382,3.915q4.4,5.642,4.4,17.04,0,13.01-5.709,17.155,6.552,5.066,6.552,20.379,0,12.55-4.773,18.191a10.616,10.616,0,0,1-4.68,3.4,22.111,22.111,0,0,1-7.3.979Zm12.074-47.9h5.429A5.746,5.746,0,0,0-141.75-69.1q1.638-2.648,1.638-8.4,0-6.332-1.591-8.865t-5.616-2.533h-5.148Zm0,36.037h5.429q4.4,0,5.99-2.418,1.778-2.763,1.778-9.326,0-6.908-1.591-9.671t-5.522-2.763h-6.084Zm32.21-70.347h12.074v56.531q0,8.75,1.357,11.8t5.195,3.051q4.493,0,5.9-3.454,1.123-2.993,1.123-11.4v-56.531h12.074v56.531a78.5,78.5,0,0,1-.655,11.8,21.023,21.023,0,0,1-2.434,7.081,15.207,15.207,0,0,1-6.224,6.1,21.306,21.306,0,0,1-9.5,1.842,20.875,20.875,0,0,1-10.2-2.188,15.357,15.357,0,0,1-6.271-7.023,21.859,21.859,0,0,1-1.919-6.678,87.361,87.361,0,0,1-.515-10.938Zm46.624,82.206v-82.206h12.074v82.206Zm21.166,0v-82.206h12.074v70h20.5v12.2Zm37.077,0v-82.206H1.178a33.171,33.171,0,0,1,9.828,1.151,13.508,13.508,0,0,1,6.084,4.03,17.428,17.428,0,0,1,3.931,7.6,53.091,53.091,0,0,1,1.123,12.319v32.007a51.042,51.042,0,0,1-1.17,12.319,18.406,18.406,0,0,1-3.884,7.6,13.508,13.508,0,0,1-6.084,4.03,33.171,33.171,0,0,1-9.828,1.151ZM-3.315-30.417H1.646q5.335,0,7.02-3.684,1.4-3.224,1.4-12.089V-73.132q0-10.017-1.966-13.01-1.685-2.763-6.458-2.763H-3.315Zm33.24,11.859v-82.206h32.2v12.2H42v22.451H58.94v12.2H42v23.142H62.59v12.2Zm51.023-33.85v33.85H68.874v-82.206H85.722a29.1,29.1,0,0,1,9.453,1.209,12.254,12.254,0,0,1,5.709,4.318q4.305,5.642,4.305,18.306,0,10.592-1.872,15.6a14,14,0,0,1-6.926,7.656l10.951,35.116H93.958l-9.266-33.85Zm-.374-11.4h4.305a10.961,10.961,0,0,0,4.071-.576,4.937,4.937,0,0,0,2.293-2.188q1.965-3.109,1.966-9.441,0-7.138-1.778-10.017t-6.177-2.878h-4.68Z" transform="translate(247.646 100.765)" fill="#00c600"/>
          </g>
        </g>
      </g>
    </g>
  </g>
</svg>
